<svg xmlns="http://www.w3.org/2000/svg" viewBox="0 0 300 185"><rect width="300" height="185" fill="#e6edfb"/><circle cx="235" cy="39" r="28" fill="#fff" opacity=".28"/><circle cx="59" cy="115" r="40" fill="#fff" opacity=".2"/><ellipse cx="150" cy="158" rx="64" ry="8" fill="#ced9ee"/><path d="m95 40 76-12 32 109-80 16Z" fill="#6984d1"/><path d="m102 42 64-10 29 104-65 12Z" fill="#faf8ef"/><path d="m88 45 76-12 30 103-78 17Z" fill="#3159a8"/><path d="m88 45 13-2 28 108-13 2Z" fill="#234586"/><path d="m117 68 33-6m-29 18 33-6m-29 18 20-4" stroke="#c9d7fb" stroke-width="3"/><path d="m149 111 6-14 10 11-7 14Z" fill="#eac677"/></svg>